HIERARCHY
ROOT Hips
{
	OFFSET 0.00000 0.00000 0.00000
	CHANNELS 6 Xposition Yposition Zposition Zrotation Yrotation Xrotation 
	JOINT LHipJoint
	{
		OFFSET 0 0 0
		CHANNELS 3 Zrotation Yrotation Xrotation
		JOINT LeftUpLeg
		{
			OFFSET 1.62964 -1.40469 0.78906
			CHANNELS 3 Zrotation Yrotation Xrotation
			JOINT LeftLeg
			{
				OFFSET 2.29640 -6.30932 0.00000
				CHANNELS 3 Zrotation Yrotation Xrotation
				JOINT LeftFoot
				{
					OFFSET 2.29451 -6.30412 0.00000
					CHANNELS 3 Zrotation Yrotation Xrotation
					JOINT LeftToeBase
					{
						OFFSET 0.03611 -0.09921 1.56387
						CHANNELS 3 Zrotation Yrotation Xrotation
						End Site
						{
							OFFSET 0.00000 -0.00000 0.80291
						}
					}
				}
			}
		}
	}
	JOINT RHipJoint
	{
		OFFSET 0 0 0
		CHANNELS 3 Zrotation Yrotation Xrotation
		JOINT RightUpLeg
		{
			OFFSET -1.73712 -1.40469 0.78906
			CHANNELS 3 Zrotation Yrotation Xrotation
			JOINT RightLeg
			{
				OFFSET -2.28137 -6.26801 0.00000
				CHANNELS 3 Zrotation Yrotation Xrotation
				JOINT RightFoot
				{
					OFFSET -2.28681 -6.28298 0.00000
					CHANNELS 3 Zrotation Yrotation Xrotation
					JOINT RightToeBase
					{
						OFFSET -0.15927 -0.43759 1.61103
						CHANNELS 3 Zrotation Yrotation Xrotation
						End Site
						{
							OFFSET -0.00000 -0.00000 0.84630
						}
					}
				}
			}
		}
	}
	JOINT LowerBack
	{
		OFFSET 0 0 0
		CHANNELS 3 Zrotation Yrotation Xrotation
		JOINT Spine
		{
			OFFSET -0.04227 2.04338 -0.00225
			CHANNELS 3 Zrotation Yrotation Xrotation
			JOINT Spine1
			{
				OFFSET -0.02148 2.04482 -0.04273
				CHANNELS 3 Zrotation Yrotation Xrotation
				JOINT Neck
				{
					OFFSET 0 0 0
					CHANNELS 3 Zrotation Yrotation Xrotation
					JOINT Neck1
					{
						OFFSET 0.09180 1.44629 0.19359
						CHANNELS 3 Zrotation Yrotation Xrotation
						JOINT Head
						{
							OFFSET 0.00887 1.40645 0.14750
							CHANNELS 3 Zrotation Yrotation Xrotation
							End Site
							{
								OFFSET -0.00669 1.50671 0.03707
							}
						}
					}
				}
				JOINT LeftShoulder
				{
					OFFSET 0 0 0
					CHANNELS 3 Zrotation Yrotation Xrotation
					JOINT LeftArm
					{
						OFFSET 2.17674 1.86763 -0.06520
						CHANNELS 3 Zrotation Yrotation Xrotation
						JOINT LeftForeArm
						{
							OFFSET 4.65776 -0.00000 0.00000
							CHANNELS 3 Zrotation Yrotation Xrotation
							JOINT LeftHand
							{
								OFFSET 3.55539 -0.00000 0.00000
								CHANNELS 3 Zrotation Yrotation Xrotation
								JOINT LeftFingerBase
								{
									OFFSET 0 0 0
									CHANNELS 3 Zrotation Yrotation Xrotation
									JOINT LeftHandIndex1
									{
										OFFSET 0.70726 -0.00000 0.00000
										CHANNELS 3 Zrotation Yrotation Xrotation
										End Site
										{
											OFFSET 0.57022 -0.00000 0.00000
										}
									}
								}
								JOINT LThumb
								{
									OFFSET 0 0 0
									CHANNELS 3 Zrotation Yrotation Xrotation
									End Site
									{
										OFFSET 0.57892 -0.00000 0.57892
									}
								}
							}
						}
					}
				}
				JOINT RightShoulder
				{
					OFFSET 0 0 0
					CHANNELS 3 Zrotation Yrotation Xrotation
					JOINT RightArm
					{
						OFFSET -2.80694 1.55459 -0.32496
						CHANNELS 3 Zrotation Yrotation Xrotation
						JOINT RightForeArm
						{
							OFFSET -4.71925 -0.00000 -0.00000
							CHANNELS 3 Zrotation Yrotation Xrotation
							JOINT RightHand
							{
								OFFSET -3.56990 -0.00000 0.00000
								CHANNELS 3 Zrotation Yrotation Xrotation
								JOINT RightFingerBase
								{
									OFFSET 0 0 0
									CHANNELS 3 Zrotation Yrotation Xrotation
									JOINT RightHandIndex1
									{
										OFFSET -0.50776 -0.00000 0.00000
										CHANNELS 3 Zrotation Yrotation Xrotation
										End Site
										{
											OFFSET -0.40937 -0.00000 0.00000
										}
									}
								}
								JOINT RThumb
								{
									OFFSET 0 0 0
									CHANNELS 3 Zrotation Yrotation Xrotation
									End Site
									{
										OFFSET -0.41562 -0.00000 0.41562
									}
								}
							}
						}
					}
				}
			}
		}
	}
}
MOTION
Frames: 9
Frame Time: .0083333
-1.3575 16.2746 21.286 0 0 0 0 0 0 -21 0 0 0 0 0 0 0 0 0 0 0 0 0 0 21 0 0 0 0 0 0 0 0 0 0 0 0 0 0 0 0 0 0 0 0 0 0 -16 0 0 21 0 0 11 0 0 0 -8 0 0 0 0 0 0 0 0 0 0 0 0 0 0 0 0 0 0 0 0 8 0 0 0 0 0 0 0 0 0 0 0 0 0 0 0 0 0
-1.3575 16.2746 21.2860 179.9350 0.1359 -154.8490 0.0000 0.0000 0.0000 -20.1707 -13.6751 -19.4852 0.1325 2.3464 6.4641 0.0268 -5.6243 -4.6913 1.3061 -7.2397 -20.4273 0.0000 0.0000 0.0000 18.7515 15.6358 -20.5389 -0.2497 -3.2152 8.8784 -1.0238 4.3803 -18.1613 -1.5152 7.7734 -22.0279 -6.7170 -3.0095 -28.7869 0.3794 -1.1880 -0.8237 3.6764 -0.7447 14.4944 -0.8342 -4.8782 -0.3879 4.4155 -6.3341 14.5448 1.2576 -2.5914 4.5893 -0.0000 -0.0000 0.0000 -85.5216 2.3245 17.2029 11.1310 -18.4888 -1.8173 -0.0000 -0.0000 5.5055 21.5208 -11.7667 -4.5975 -7.1250 0.0000 -0.0000 -3.9459 17.3771 2.5935 -0.0000 -0.0000 0.0000 91.7056 -9.9976 8.0945 -19.0653 29.4997 -5.0629 0.0000 -0.0000 -3.2569 -13.5384 -52.6375 10.8343 7.1250 -0.0000 -0.0000 64.7332 -76.2108 -51.3282
-1.3694 16.2725 21.2941 180.1400 -0.0766 -154.8870 0.0000 0.0000 0.0000 -19.9758 -13.8204 -19.4632 0.1372 2.3874 6.5775 0.0245 -5.6019 -4.6170 1.2205 -7.0073 -19.7370 0.0000 0.0000 0.0000 19.1208 15.1538 -20.6118 -0.2492 -3.2119 8.8692 -1.0168 4.7052 -18.0665 -1.5865 7.9456 -22.5490 -6.6471 -2.2639 -28.5878 0.3660 -1.4167 -0.8712 3.4187 -1.3191 14.3247 -0.6981 -4.9542 -0.2353 4.3193 -6.4225 14.5101 1.2063 -2.6334 4.5484 0.0000 -0.0000 0.0000 -85.4464 2.3702 17.1867 11.1603 -18.5336 -1.8266 -0.0000 -0.0000 5.7832 21.2065 -11.4855 -4.4179 -7.1250 0.0000 -0.0000 -4.1567 17.7042 2.7029 0.0000 -0.0000 0.0000 91.7397 -9.9727 8.1034 -19.0397 29.4680 -5.0504 0.0000 -0.0000 -3.3065 -13.5086 -53.0055 10.8617 7.1250 -0.0000 -0.0000 66.2041 -76.3112 -52.7743
-1.3659 16.2734 21.2973 180.1010 0.0615 -154.7800 0.0000 0.0000 0.0000 -19.9563 -14.0399 -19.5594 0.1403 2.4140 6.6511 0.0322 -5.3960 -4.7053 1.2549 -7.1018 -20.0174 0.0000 0.0000 0.0000 18.9782 15.3847 -20.7351 -0.2538 -3.2411 8.9508 -1.0201 4.6848 -18.0982 -1.5460 7.8484 -22.2547 -6.3471 -2.9159 -28.6608 0.3328 -1.1862 -0.9107 3.4281 -0.7085 14.3282 -0.6104 -5.0361 -0.0667 4.1199 -6.4900 14.0776 1.2631 -2.6918 4.8866 -0.0000 0.0000 0.0000 -85.3909 2.4243 17.2062 11.1433 -18.5075 -1.8211 -0.0000 -0.0000 5.7987 21.3540 -11.6641 -4.5195 -7.1250 0.0000 -0.0000 -4.0591 17.5013 2.6572 -0.0000 0.0000 0.0000 91.8339 -9.9756 8.0054 -19.0914 29.5321 -5.0758 0.0000 -0.0000 -3.2634 -13.2645 -53.3487 10.7097 7.1250 -0.0000 -0.0000 67.6726 -76.3129 -54.1238
-1.3716 16.2740 21.3010 179.8850 0.1828 -154.6060 0.0000 0.0000 0.0000 -20.2290 -14.2704 -19.7234 0.1445 2.4499 6.7507 0.0368 -5.2827 -4.7669 1.3231 -7.2847 -20.5616 0.0000 0.0000 0.0000 18.6460 15.2669 -21.0394 -0.2568 -3.2606 9.0050 -1.0168 4.9322 -18.0486 -1.4942 7.7217 -21.8720 -6.4970 -2.9638 -28.7513 0.2684 -1.1670 -0.9787 3.4465 -0.6970 14.2894 -0.6065 -5.1604 -0.0695 3.9885 -6.6427 14.1686 1.2102 -2.7700 4.9194 0.0000 -0.0000 0.0000 -85.4220 2.4833 17.0685 11.1238 -18.4778 -1.8150 -0.0000 -0.0000 6.0265 21.3994 -11.8780 -4.6115 -7.1250 0.0000 -0.0000 -4.0345 17.2697 2.6616 0.0000 -0.0000 0.0000 91.8383 -10.0286 7.9784 -19.1910 29.6553 -5.1250 0.0000 -0.0000 -3.2738 -13.0944 -53.3348 10.5688 7.1250 -0.0000 -0.0000 67.6790 -76.2436 -54.0548
-1.3664 16.2703 21.2978 180.0200 0.1876 -154.6600 0.0000 0.0000 0.0000 -20.0281 -14.3068 -19.6755 0.1472 2.4726 6.8137 0.0437 -5.1232 -4.8680 1.3942 -7.4701 -21.1157 0.0000 0.0000 0.0000 18.7899 15.5294 -20.8605 -0.2535 -3.2393 8.9458 -1.0127 4.7965 -18.0213 -1.4285 7.5574 -21.3777 -6.4536 -2.9753 -28.6937 0.3443 -1.2190 -0.9706 3.4858 -0.7227 14.2794 -0.5718 -5.4183 -0.2398 3.8839 -7.0038 14.7763 1.0250 -2.9269 4.6276 0.0000 -0.0000 0.0000 -85.4743 2.4989 16.9908 11.0826 -18.4148 -1.8019 -0.0000 -0.0000 5.8849 21.5962 -12.0015 -4.7055 -7.1250 0.0000 -0.0000 -3.9016 17.1201 2.5862 0.0000 -0.0000 0.0000 91.7683 -10.0675 8.1422 -19.2787 29.7635 -5.1685 0.0000 -0.0000 -3.4292 -13.1005 -53.4160 10.5847 7.1250 -0.0000 -0.0000 68.0020 -76.2676 -54.3785
-1.3709 16.2726 21.3021 179.8950 0.2281 -154.6300 0.0000 0.0000 0.0000 -20.1853 -14.4576 -19.6837 0.1496 2.4924 6.8685 0.0495 -5.0423 -4.9816 1.3572 -7.3744 -20.8294 0.0000 0.0000 0.0000 18.5842 15.5986 -20.8854 -0.2499 -3.2164 8.8819 -0.9980 4.7468 -17.8898 -1.3764 7.4242 -20.9782 -6.5434 -3.0190 -28.6541 0.3249 -1.2462 -0.9758 3.5035 -0.7391 14.2585 -0.4437 -5.6773 -0.1334 3.5739 -7.3126 14.2999 1.0062 -3.1111 4.9722 0.0000 0.0000 0.0000 -85.5139 2.4381 17.1895 11.0123 -18.3071 -1.7798 -0.0000 -0.0000 5.3577 22.1248 -12.0346 -4.8453 -7.1250 0.0000 -0.0000 -3.5345 17.0353 2.3484 0.0000 0.0000 0.0000 91.6849 -10.0311 8.3086 -19.3139 29.8068 -5.1859 0.0000 -0.0000 -3.5828 -13.0681 -53.3848 10.5540 7.1250 -0.0000 -0.0000 67.8886 -76.2468 -54.2514
-1.3610 16.2711 21.3037 180.2160 0.2352 -154.7590 0.0000 0.0000 0.0000 -19.7114 -14.4129 -19.5855 0.1491 2.4881 6.8566 0.0580 -4.8491 -5.1144 1.2896 -7.1955 -20.2959 0.0000 0.0000 0.0000 18.9545 16.0974 -20.5631 -0.2465 -3.1948 8.8214 -1.0001 4.2660 -17.9547 -1.4347 7.5732 -21.4249 -6.3490 -2.9510 -28.5158 0.4233 -1.2638 -0.9308 3.4994 -0.7466 14.2487 -0.3067 -5.8243 -0.1524 3.4186 -7.5034 14.3152 0.9197 -3.2065 4.9716 0.0000 0.0000 0.0000 -85.4513 2.3710 17.2659 10.9754 -18.2506 -1.7682 -0.0000 -0.0000 5.5310 22.3355 -11.9616 -4.8671 -7.1250 0.0000 -0.0000 -3.3847 17.0934 2.2443 0.0000 0.0000 0.0000 91.6665 -9.9021 8.3406 -19.2765 29.7608 -5.1674 0.0000 -0.0000 -3.6202 -13.4467 -53.3239 10.8553 7.1250 -0.0000 -0.0000 67.5059 -76.3765 -54.0389
-1.3698 16.2740 21.3092 179.9680 0.3814 -154.5720 0.0000 0.0000 0.0000 -20.0561 -14.5863 -19.7490 0.1509 2.5034 6.8991 0.0604 -4.7676 -5.1426 1.2617 -7.1203 -20.0723 0.0000 0.0000 0.0000 18.6118 15.8606 -20.9235 -0.2533 -3.2380 8.9420 -0.9992 4.5126 -17.9212 -1.5099 7.7604 -21.9885 -6.4469 -3.0245 -28.6541 0.3194 -1.2884 -0.9572 3.4283 -0.7545 14.2829 -0.2459 -5.9160 -0.4372 3.3809 -7.6466 15.0163 0.7820 -3.2478 4.7190 0.0000 -0.0000 0.0000 -85.3885 2.3474 17.0174 10.9820 -18.2607 -1.7703 -0.0000 -0.0000 6.2036 22.3559 -12.0558 -4.9096 -7.1250 0.0000 -0.0000 -3.3744 16.9906 2.2450 0.0000 -0.0000 0.0000 91.6453 -9.8035 8.5020 -19.2911 29.7788 -5.1746 0.0000 -0.0000 -3.7061 -14.0664 -53.5657 11.3972 7.1250 -0.0000 -0.0000 68.2834 -76.6791 -55.0829
